<svg fill="none" xmlns="http://www.w3.org/2000/svg" viewBox="0 0 512 512"><rect x="208.372" width="95.256" height="95.256" rx="1" fill="#F9CD5D"/><rect x="312.558" width="95.256" height="95.256" rx="1" fill="#F9CD5D"/><rect x="104.186" width="95.256" height="95.256" rx="1" fill="#13D326"/><rect width="95.256" height="95.256" rx="1" fill="#5582F7"/><rect x="416.744" width="95.256" height="95.256" rx="1" fill="#5582F7"/><rect x="208.372" y="104.186" width="95.256" height="95.256" rx="1" fill="#5582F7"/><rect x="312.558" y="104.186" width="95.256" height="95.256" rx="1" fill="#5582F7"/><rect x="104.186" y="104.186" width="95.256" height="95.256" rx="1" fill="#F9CD5D"/><rect y="104.186" width="95.256" height="95.256" rx="1" fill="#F9CD5D"/><rect x="416.744" y="104.186" width="95.256" height="95.256" rx="1" fill="#5582F7"/><rect x="208.372" y="208.372" width="95.256" height="95.256" rx="1" fill="#F9CD5D"/><rect x="312.558" y="208.372" width="95.256" height="95.256" rx="1" fill="#F9CD5D"/><rect x="104.186" y="208.372" width="95.256" height="95.256" rx="1" fill="#13D326"/><rect y="208.372" width="95.256" height="95.256" rx="1" fill="#5582F7"/><rect x="416.744" y="208.372" width="95.256" height="95.256" rx="1" fill="#5582F7"/><rect x="208.372" y="312.558" width="95.256" height="95.256" rx="1" fill="#F9CD5D"/><rect x="312.558" y="312.558" width="95.256" height="95.256" rx="1" fill="#F9CD5D"/><rect x="104.186" y="312.558" width="95.256" height="95.256" rx="1" fill="#13D326"/><rect y="312.558" width="95.256" height="95.256" rx="1" fill="#5582F7"/><rect x="416.744" y="312.558" width="95.256" height="95.256" rx="1" fill="#5582F7"/><rect x="208.372" y="416.744" width="95.256" height="95.256" rx="1" fill="#13D326"/><rect x="312.558" y="416.744" width="95.256" height="95.256" rx="1" fill="#13D326"/><rect x="104.186" y="416.744" width="95.256" height="95.256" rx="1" fill="#13D326"/><rect y="416.744" width="95.256" height="95.256" rx="1" fill="#13D326"/><rect x="416.744" y="416.744" width="95.256" height="95.256" rx="1" fill="#13D326"/></svg>