<?xml version="1.0" standalone="no"?>
<!DOCTYPE svg PUBLIC "-//W3C//DTD SVG 20010904//EN"
 "http://www.w3.org/TR/2001/REC-SVG-20010904/DTD/svg10.dtd">
<svg version="1.0" xmlns="http://www.w3.org/2000/svg"
 width="700.000000pt" height="700.000000pt" viewBox="0 0 700.000000 700.000000"
 preserveAspectRatio="xMidYMid meet">
<metadata>
Created by potrace 1.14, written by Peter Selinger 2001-2017
</metadata>
<g transform="translate(0.000000,700.000000) scale(0.100000,-0.100000)"
fill="#000000" stroke="none">
<path d="M0 6350 l0 -650 23 -1 c110 -4 1268 -1 1273 4 4 4 8 1157 5 1280 -1
16 -39 17 -651 17 l-650 0 0 -650z"/>
<path d="M1429 6998 c-7 -15 -2 -1291 5 -1296 13 -7 1270 -7 1283 1 6 4 9 252
9 649 l-1 643 -647 3 c-357 1 -649 1 -649 0z"/>
<path d="M2850 6350 l0 -650 23 0 c40 -1 1231 -2 1255 -1 l22 1 0 650 0 650
-650 0 -650 0 0 -650z"/>
<path d="M4278 6998 c-6 -10 -4 -1285 2 -1293 9 -11 1269 -13 1286 -3 5 4 9
266 9 650 l0 643 -648 3 c-356 1 -648 1 -649 0z"/>
<path d="M5699 6973 c-3 -187 1 -1266 5 -1271 5 -4 939 -6 1254 -3 l42 1 0
650 0 650 -650 0 -650 0 -1 -27z"/>
<path d="M4 5565 c-2 -5 -3 -298 -2 -650 l3 -640 643 -1 c384 0 645 3 649 9 8
13 7 1276 -2 1285 -11 11 -1287 9 -1291 -3z"/>
<path d="M1431 5570 c-4 -3 -7 -295 -6 -650 l0 -645 640 -1 c352 0 645 1 651
3 7 3 10 198 10 651 l-1 647 -643 0 c-354 0 -647 -2 -651 -5z"/>
<path d="M2854 5565 c-2 -5 -3 -298 -2 -650 l3 -640 645 0 645 0 0 650 0 650
-644 0 c-422 0 -645 -3 -647 -10z"/>
<path d="M4281 5570 c-4 -3 -7 -295 -7 -650 l1 -645 640 -1 c352 -1 645 2 650
7 7 5 10 226 9 646 -1 351 -2 640 -3 643 -1 7 -1280 7 -1290 0z"/>
<path d="M5703 5567 c-7 -11 -6 -1273 0 -1285 4 -5 278 -8 649 -8 l643 1 0
650 0 650 -643 0 c-354 0 -646 -4 -649 -8z"/>
<path d="M0 3500 l0 -650 650 0 c513 0 650 3 651 13 0 18 0 1249 0 1270 -1 16
-39 17 -651 17 l-650 0 0 -650z"/>
<path d="M1427 4143 c-3 -7 -2 -1247 2 -1281 1 -10 134 -12 649 -10 l647 3 0
645 0 645 -647 3 c-356 1 -648 -1 -651 -5z"/>
<path d="M2850 3500 l0 -650 650 0 650 0 0 650 0 650 -650 0 -650 0 0 -650z"/>
<path d="M4278 4148 c-1 -2 -2 -294 -3 -650 l-2 -648 648 0 c509 0 648 3 651
13 4 10 3 1258 -1 1280 -1 6 -1288 11 -1293 5z"/>
<path d="M5699 4120 c0 -16 0 -308 -1 -647 l0 -618 651 -3 651 -2 0 650 0 650
-650 0 -650 0 -1 -30z"/>
<path d="M4 2716 c-2 -6 -3 -299 -2 -651 l3 -640 648 0 c640 0 647 0 648 20 0
22 0 1189 -1 1246 l0 36 -646 -1 c-446 0 -647 -3 -650 -10z"/>
<path d="M1429 2726 c-1 -1 -2 -292 -3 -648 -1 -428 2 -648 9 -649 25 -3 1271
-5 1281 -2 7 3 10 203 10 651 l-1 647 -647 1 c-357 0 -649 0 -649 0z"/>
<path d="M2850 2079 c0 -509 3 -648 13 -651 6 -2 298 -4 647 -4 l635 1 0 650
0 650 -647 1 -648 0 0 -647z"/>
<path d="M4276 2721 c-2 -3 -3 -296 -2 -651 l1 -645 648 0 c356 0 648 2 648 5
3 13 5 1276 2 1286 -4 11 -1291 16 -1297 5z"/>
<path d="M5704 2723 c-10 -3 -12 -1258 -2 -1284 5 -12 104 -14 649 -14 l644 0
0 650 0 650 -641 1 c-352 0 -644 -1 -650 -3z"/>
<path d="M27 1302 l-27 -3 0 -650 0 -649 650 0 650 0 1 33 c3 185 0 1259 -4
1264 -6 6 -1220 11 -1270 5z"/>
<path d="M1442 1299 c-16 -6 -17 -53 -16 -645 1 -352 2 -642 3 -646 1 -10
1291 -10 1293 0 0 4 2 294 3 646 1 515 -1 639 -12 643 -19 7 -1251 9 -1271 2z"/>
<path d="M2873 1302 l-23 -3 0 -650 0 -649 650 0 650 0 0 650 0 650 -22 1
c-79 2 -1237 3 -1255 1z"/>
<path d="M4304 1300 l-29 -5 0 -645 0 -645 650 0 650 0 0 644 c0 522 -2 644
-13 649 -17 6 -1220 8 -1258 2z"/>
<path d="M5717 1302 c-11 -2 -17 -13 -18 -30 0 -34 0 -1184 0 -1234 l1 -38
650 0 650 0 0 650 0 650 -27 1 c-88 3 -1242 3 -1256 1z"/>
</g>
</svg>
